<svg xmlns="http://www.w3.org/2000/svg" viewBox="0 0 815.87 350.62"><g id="Layer_2" data-name="Layer 2"><g id="Layer_1-2" data-name="Layer 1"><path d="M690.74,309l8.57,41.64H127.62c-2.19-10.44-4.13-19.73-6.42-30.66H5.66L28.83,276.2,0,268.84c.51-3.11-.1-7.34,1.72-9.26,75.46-79.39,150.46-159.24,227.5-237.06C240.63,11,261.68,4.27,278.55,3.7,366.13.75,453.82-.79,541.43.41c18.21.24,40.68,9.64,53.6,22.47,69.55,69,136.76,140.4,204.61,211.12,5.22,5.44,9.21,12.06,16.23,21.39l-49.4,6.93C775.35,278.58,782.69,292,792,309ZM571.87,39.43C508.34,107.2,448.16,173.9,384.67,237.29c-15.13,15.11-40.92,25.92-62.44,27.11-74.75,4.12-149.8,2.45-224.69,4.7-14.15.43-28.07,8.69-42.1,13.34l3.19,9.28c71.05,0,142.14-1.68,213.11.52,60.34,1.87,117.87,1.33,153.1-59.42a45.73,45.73,0,0,1,4.68,1.87c-24.27,44-46.36,84.4-110,75.89-44.07-5.9-89.74-.51-134.67.95-10.66.35-21.18,5.14-38.16,9.55,10.62,6.63,13.35,9.82,16.05,9.8,97.94-.77,195.89-1.14,293.77-4,9.47-.28,22.09-14.52,27-25.15,9.75-21.34,15.15-44.68,22.35-67.19l5.62,1.52c-5.42,32-10.84,64-16.77,99,13.41,0,21.46-.89,29.24.16,33.65,4.54,46.07-9.87,42.13-43-2.18-18.31-.39-37.1-.39-55.68,9.69,26.55,6.07,60.7,21.43,77.38,13.95,15.15,48.55,11.29,80.26,16.92l-35.86-114c24.62,43.4,44.34,90.16,112.21,63.92Z"/></g></g></svg>